<mxfile host="app.diagrams.net" modified="2023-07-14T18:22:59.790Z" agent="Mozilla/5.0 (Macintosh; Intel Mac OS X 10_15_7) AppleWebKit/605.1.15 (KHTML, like Gecko) Version/16.5.1 Safari/605.1.15" etag="alDl1JVzdoR3Eu46Qq1a" version="21.6.2" type="device">
  <diagram id="nFusjH9kAZ7OcAl2wifR" name="Page-1">
    <mxGraphModel dx="588" dy="1046" grid="1" gridSize="10" guides="1" tooltips="1" connect="1" arrows="1" fold="1" page="0" pageScale="1" pageWidth="850" pageHeight="1100" math="0" shadow="0">
      <root>
        <mxCell id="0" />
        <mxCell id="1" parent="0" />
        <mxCell id="sqnnLxuROnUVCkLHrNx3-1" value="&lt;font color=&quot;#000000&quot; style=&quot;font-size: 16px;&quot; face=&quot;LMRoman10-Regular&quot;&gt;External&lt;br&gt;Drivers,&lt;br&gt;OS Loaders&lt;/font&gt;" style="rounded=0;whiteSpace=wrap;html=1;fillColor=default;fontColor=#FFFFFF;" parent="1" vertex="1">
          <mxGeometry x="160" y="200" width="100" height="80" as="geometry" />
        </mxCell>
        <mxCell id="sqnnLxuROnUVCkLHrNx3-3" value="&lt;font size=&quot;3&quot; face=&quot;LMRoman10-Regular&quot;&gt;Platform&lt;br&gt;Firmware&lt;br&gt;Drivers&lt;/font&gt;" style="rounded=0;whiteSpace=wrap;html=1;" parent="1" vertex="1">
          <mxGeometry x="160" y="380" width="100" height="80" as="geometry" />
        </mxCell>
        <mxCell id="sqnnLxuROnUVCkLHrNx3-4" value="&lt;font size=&quot;3&quot; face=&quot;LMRoman10-Regular&quot; color=&quot;#000000&quot;&gt;&lt;span style=&quot;caret-color: rgb(0, 0, 0);&quot;&gt;Module&lt;br&gt;Dispatcher&lt;br&gt;&lt;br&gt;&lt;br&gt;&lt;br&gt;&lt;br&gt;&lt;/span&gt;&lt;/font&gt;" style="rounded=0;whiteSpace=wrap;html=1;fillColor=#FFFFFF;fontColor=#FFFFFF;" parent="1" vertex="1">
          <mxGeometry x="340" y="240" width="120" height="130" as="geometry" />
        </mxCell>
        <mxCell id="sqnnLxuROnUVCkLHrNx3-14" style="edgeStyle=none;rounded=0;orthogonalLoop=1;jettySize=auto;html=1;exitX=1;exitY=0.25;exitDx=0;exitDy=0;fontFamily=LMRoman10-Regular;fontSize=16;fontColor=#000000;entryX=0;entryY=0.5;entryDx=0;entryDy=0;" parent="1" source="sqnnLxuROnUVCkLHrNx3-5" target="sqnnLxuROnUVCkLHrNx3-9" edge="1">
          <mxGeometry relative="1" as="geometry">
            <mxPoint x="480" y="190" as="targetPoint" />
          </mxGeometry>
        </mxCell>
        <mxCell id="sqnnLxuROnUVCkLHrNx3-15" style="edgeStyle=none;rounded=0;orthogonalLoop=1;jettySize=auto;html=1;exitX=1;exitY=0.5;exitDx=0;exitDy=0;entryX=0;entryY=0.5;entryDx=0;entryDy=0;fontFamily=LMRoman10-Regular;fontSize=16;fontColor=#000000;" parent="1" source="sqnnLxuROnUVCkLHrNx3-5" target="sqnnLxuROnUVCkLHrNx3-11" edge="1">
          <mxGeometry relative="1" as="geometry" />
        </mxCell>
        <mxCell id="sqnnLxuROnUVCkLHrNx3-16" style="edgeStyle=none;rounded=0;orthogonalLoop=1;jettySize=auto;html=1;exitX=1;exitY=0.75;exitDx=0;exitDy=0;entryX=0;entryY=0.5;entryDx=0;entryDy=0;fontFamily=LMRoman10-Regular;fontSize=16;fontColor=#000000;" parent="1" source="sqnnLxuROnUVCkLHrNx3-5" target="sqnnLxuROnUVCkLHrNx3-10" edge="1">
          <mxGeometry relative="1" as="geometry" />
        </mxCell>
        <mxCell id="sqnnLxuROnUVCkLHrNx3-5" value="&lt;font face=&quot;LMRoman10-Regular&quot; color=&quot;#000000&quot;&gt;&lt;b&gt;Image File&lt;br&gt;Loader&lt;/b&gt;&lt;/font&gt;" style="rounded=0;whiteSpace=wrap;html=1;strokeColor=#000000;fontSize=16;fontColor=#E6E6E6;fillColor=#FFFFFF;strokeWidth=2;" parent="1" vertex="1">
          <mxGeometry x="350.5" y="300.5" width="100" height="60" as="geometry" />
        </mxCell>
        <mxCell id="sqnnLxuROnUVCkLHrNx3-2" value="&lt;font size=&quot;3&quot; face=&quot;LMRoman10-Regular&quot;&gt;Peripheral&lt;br&gt;Option&lt;br&gt;ROMs&lt;/font&gt;" style="rounded=0;whiteSpace=wrap;html=1;strokeColor=#000000;fillColor=#FFFFFF;" parent="1" vertex="1">
          <mxGeometry x="160" y="290" width="100" height="80" as="geometry" />
        </mxCell>
        <mxCell id="sqnnLxuROnUVCkLHrNx3-7" style="rounded=0;orthogonalLoop=1;jettySize=auto;html=1;exitX=1;exitY=0.5;exitDx=0;exitDy=0;entryX=0;entryY=0.5;entryDx=0;entryDy=0;fontSize=16;fontColor=#000000;" parent="1" source="sqnnLxuROnUVCkLHrNx3-2" target="sqnnLxuROnUVCkLHrNx3-5" edge="1">
          <mxGeometry relative="1" as="geometry" />
        </mxCell>
        <mxCell id="sqnnLxuROnUVCkLHrNx3-8" style="rounded=0;orthogonalLoop=1;jettySize=auto;html=1;exitX=1;exitY=0.5;exitDx=0;exitDy=0;entryX=0;entryY=0.75;entryDx=0;entryDy=0;fontSize=16;fontColor=#000000;" parent="1" source="sqnnLxuROnUVCkLHrNx3-3" target="sqnnLxuROnUVCkLHrNx3-5" edge="1">
          <mxGeometry relative="1" as="geometry" />
        </mxCell>
        <mxCell id="sqnnLxuROnUVCkLHrNx3-6" style="rounded=0;orthogonalLoop=1;jettySize=auto;html=1;exitX=1;exitY=0.5;exitDx=0;exitDy=0;entryX=0;entryY=0.25;entryDx=0;entryDy=0;fontSize=16;fontColor=#000000;" parent="1" source="sqnnLxuROnUVCkLHrNx3-1" target="sqnnLxuROnUVCkLHrNx3-5" edge="1">
          <mxGeometry relative="1" as="geometry" />
        </mxCell>
        <mxCell id="sqnnLxuROnUVCkLHrNx3-9" value="&lt;font face=&quot;LMRoman10-Regular&quot; style=&quot;font-size: 16px;&quot; color=&quot;#000000&quot;&gt;OS&lt;br&gt;Loader&lt;/font&gt;" style="rounded=0;whiteSpace=wrap;html=1;" parent="1" vertex="1">
          <mxGeometry x="540" y="255" width="100" height="50" as="geometry" />
        </mxCell>
        <mxCell id="sqnnLxuROnUVCkLHrNx3-10" value="&lt;font size=&quot;3&quot; face=&quot;LMRoman10-Regular&quot;&gt;UEFI&lt;br&gt;Driver&lt;/font&gt;" style="rounded=0;whiteSpace=wrap;html=1;" parent="1" vertex="1">
          <mxGeometry x="540" y="355" width="100" height="50" as="geometry" />
        </mxCell>
        <mxCell id="sqnnLxuROnUVCkLHrNx3-11" value="&lt;font face=&quot;LMRoman10-Regular&quot;&gt;&lt;font style=&quot;font-size: 16px;&quot;&gt;Option&lt;br&gt;ROM&lt;/font&gt;&lt;/font&gt;" style="rounded=0;whiteSpace=wrap;html=1;" parent="1" vertex="1">
          <mxGeometry x="540" y="305" width="100" height="50" as="geometry" />
        </mxCell>
        <mxCell id="sqnnLxuROnUVCkLHrNx3-12" value="&lt;span style=&quot;caret-color: rgb(34, 34, 34); color: rgb(34, 34, 34); font-family: LMRoman10-Regular; font-size: 20.57px; text-align: left;&quot;&gt;â€¦&lt;/span&gt;" style="rounded=0;whiteSpace=wrap;html=1;" parent="1" vertex="1">
          <mxGeometry x="540" y="405" width="100" height="50" as="geometry" />
        </mxCell>
        <mxCell id="sqnnLxuROnUVCkLHrNx3-13" value="" style="rounded=0;whiteSpace=wrap;html=1;strokeColor=#000000;fontFamily=LMRoman10-Regular;fontSize=16;fontColor=#000000;fillColor=none;strokeWidth=2;" parent="1" vertex="1">
          <mxGeometry x="540.5" y="255.5" width="100" height="200" as="geometry" />
        </mxCell>
        <mxCell id="sqnnLxuROnUVCkLHrNx3-17" value="&lt;b&gt;UEFI&lt;br&gt;Address Space&lt;br&gt;&lt;/b&gt;" style="text;html=1;strokeColor=none;fillColor=none;align=center;verticalAlign=middle;whiteSpace=wrap;rounded=0;fontFamily=LMRoman10-Regular;fontSize=16;fontColor=#000000;" parent="1" vertex="1">
          <mxGeometry x="535" y="210" width="110" height="45" as="geometry" />
        </mxCell>
        <mxCell id="sqnnLxuROnUVCkLHrNx3-18" value="Secure Boot&lt;br&gt;Measured Boot" style="text;html=1;strokeColor=none;fillColor=none;align=center;verticalAlign=middle;whiteSpace=wrap;rounded=0;strokeWidth=2;fontFamily=LMRoman10-Regular;fontSize=16;fontColor=#000000;" parent="1" vertex="1">
          <mxGeometry x="340" y="390" width="120" height="30" as="geometry" />
        </mxCell>
        <mxCell id="sqnnLxuROnUVCkLHrNx3-19" value="" style="endArrow=none;dashed=1;html=1;rounded=0;strokeWidth=2;fontFamily=LMRoman10-Regular;fontSize=16;fontColor=#000000;" parent="1" edge="1">
          <mxGeometry x="1" y="83" width="50" height="50" relative="1" as="geometry">
            <mxPoint x="500" y="420" as="sourcePoint" />
            <mxPoint x="500" y="200" as="targetPoint" />
            <mxPoint x="33" y="-34" as="offset" />
          </mxGeometry>
        </mxCell>
        <mxCell id="sqnnLxuROnUVCkLHrNx3-20" value="&lt;b&gt;Trust&lt;br&gt;Boundary&lt;/b&gt;" style="text;html=1;strokeColor=none;fillColor=none;align=center;verticalAlign=middle;whiteSpace=wrap;rounded=0;strokeWidth=2;fontFamily=LMRoman10-Regular;fontSize=16;fontColor=#000000;" parent="1" vertex="1">
          <mxGeometry x="470" y="430" width="60" height="30" as="geometry" />
        </mxCell>
      </root>
    </mxGraphModel>
  </diagram>
</mxfile>
